<?xml version="1.0" encoding="UTF-8"?>
<svg id="Layer_2" xmlns="http://www.w3.org/2000/svg" viewBox="0 0 774.29 267.76">
  <defs>
    <style>
      .cls-1 {
        fill: #485eff;
      }

      .cls-2, .cls-3 {
        fill: #fff;
      }

      .cls-3 {
        font-family: OpenSansRoman-Bold, 'Open Sans';
        font-size: 122.04px;
        font-variation-settings: 'wght' 700, 'wdth' 100;
        font-weight: 700;
        letter-spacing: -.05em;
      }
    </style>
  </defs>
  <g id="Layer_1-2" data-name="Layer_1">
    <g>
      <polygon class="cls-2" points="11.56 28.66 11.56 249.16 32.5 262.12 172.79 262.12 195.88 248.1 195.88 57.24 138.08 6.67 32.5 6.67 11.56 28.66"/>
      <g>
        <path d="M16.51,92.18c0,20.81-.03,41.62.04,62.44,0,1.92-.59,2.69-2.46,2.8-2.27.14-4.55.36-6.79.73-1.84.3-2.45-.47-2.42-2.15.06-3.45.13-6.91.13-10.36-.07-35.34,0-70.68-.3-106.03-.13-15.26,6.32-26.61,18.93-34.6C28.9,1.69,34.96.51,41.21.51c19.63,0,39.27,0,58.9-.04,7.46-.02,14.94.16,22.37-.36,11.79-.82,21.89,3.09,30.52,10.62,11.29,9.85,22.35,19.99,33.18,30.34,5.83,5.57,10.24,12.37,12.49,20.23.87,3.04,1.1,6.35,1.11,9.54.07,28.27.03,56.55.02,84.82,0,2.96-.05,2.97-3.05,2.84-1.88-.08-3.77-.18-5.65-.1-2.18.1-2.87-.88-2.85-2.96.11-10.21.18-20.42.16-30.63-.02-16.73.11-33.46-.31-50.18-.14-5.57-1.77-11.11-2.74-16.65-.3-1.71-1.3-2.54-3.1-2.53-5.57.02-11.15.04-16.72-.08-4.94-.1-9.9-.17-14.82-.63-11.37-1.07-20.98-11.66-21.23-23.13-.13-5.81-.3-11.62-.3-17.43,0-2.1-.63-2.91-2.83-2.91-28.82.07-57.65.1-86.47.07-4.82,0-9.46.73-13.62,3.07-2.16,1.21-3.88,3.26-5.67,5.06-4.24,4.28-4.06,9.77-4.05,15.21.02,19.16,0,38.33,0,57.49-.02,0-.04,0-.06,0ZM172.79,43.87c-1.07-1.15-1.7-1.9-2.41-2.57-5.27-5.03-10.53-10.08-15.85-15.05-3.43-3.21-6.93-6.35-10.48-9.43-1.53-1.33-2.46-1.03-2.51.68-.14,4.78-.45,9.57-.16,14.33.4,6.74,6.37,12.83,13.39,12.57,5.09-.19,10.19-.05,15.28-.1.72,0,1.43-.22,2.74-.43Z"/>
        <path d="M103.66,267.74c-20.57,0-41.14.08-61.72-.07-4.36-.03-8.86-.37-13.03-1.54-8.8-2.47-15.62-7.86-20-16.02-1.48-2.75-.84-3.92,2.21-4.79.98-.28,1.97-.52,2.96-.79,1.96-.54,3.36-.05,4.64,1.7,5.27,7.16,12.3,10.83,21.35,10.8,34.15-.14,68.31-.17,102.47-.21,7.62,0,15.24-.12,22.85.17,8.36.32,14.68-3.12,19.7-9.52,2.64-3.37,7.12-3.97,10.48-1.32.4.31.54,1.42.32,1.96-4.91,11.89-15.66,19.78-28.85,19.62-21.12-.26-42.24-.07-63.36-.07,0,.03,0,.06,0,.09Z"/>
        <path d="M101.79,81.22c-19.94,0-39.88.01-59.83-.03-1.3,0-2.77-.11-3.86-.71-1.98-1.09-3.44-2.82-3.24-5.31.16-2.03,2.79-4.61,5.06-5.06.84-.17,1.72-.2,2.58-.2,39.88-.03,79.77-.05,119.65-.08,2.44,0,4.6.61,5.74,2.91,1.21,2.45.47,4.85-1.13,6.81-.63.78-1.98,1.27-3.04,1.34-3.36.22-6.75.23-10.12.24-17.27.02-34.54,0-51.82,0,0,.03,0,.05,0,.08Z"/>
        <path d="M102.29,126.88c-18.76,0-37.53,0-56.29,0-1.96,0-3.93.04-5.88-.12-2.56-.22-4.87-2.71-5-5.17-.13-2.44,1.9-5.26,4.38-5.71,1.68-.3,3.44-.27,5.16-.27,35.17.08,70.34.19,105.51.26,4.39,0,8.79-.16,13.18-.14,2.27.01,4.09.93,5.05,3.18,1,2.33.46,4.51-1.27,6.03-1.17,1.03-3,1.8-4.54,1.81-20.1.12-40.19.08-60.29.08,0,.02,0,.04,0,.06Z"/>
        <path d="M102.11,150.05c-19.23,0-38.47,0-57.7,0-1.1,0-2.2,0-3.3-.07-3.19-.18-5.65-2.36-5.81-5.1-.16-2.85,2.38-5.88,5.47-6.05,3.99-.22,8-.13,12-.11,21.43.12,42.86.34,64.28.37,14.84.02,29.67-.19,44.51-.3.71,0,1.42-.02,2.12.05,3,.31,5.1,2.55,5.14,5.46.04,2.79-2.36,5.42-5.26,5.69-.94.09-1.88.06-2.82.06-19.55,0-39.09,0-58.64,0,0,0,0,0,0,0Z"/>
        <path d="M101.98,103.82c-20.17,0-40.34-.02-60.51.03-2.24,0-3.93-.68-5.29-2.43-2.44-3.13-.94-7.63,2.96-8.49,1.36-.3,2.81-.29,4.21-.29,38.37.05,76.75.12,115.12.17,1.41,0,2.82-.16,4.23-.23,3.66-.18,6.02,1.89,6.08,5.31.05,3.07-2.62,5.75-5.82,5.75-20.33,0-40.65,0-60.98,0,0,.05,0,.1,0,.16Z"/>
        <path d="M47.61,28.66c5.17-.01,9.86,4.04,10,8.42.19,6.27-5.57,10.92-9.51,10.99-5.8.1-11.13-4.43-11.09-9.33.06-5.62,4.73-10.07,10.6-10.08Z"/>
        <path class="cls-1" d="M202.32,223.1c-.15-2-1.32-2.49-3.22-2.44-3.21.08-6.54.36-9.61-.34-6.86-1.55-13.79-3.15-20.35-5.62-12.22-4.6-23.9-2.97-35.55,1.68-3.79,1.51-7.54,3.11-11.34,4.62-13.65,5.41-27.26,5.32-40.84-.28-5.51-2.27-10.96-4.74-16.57-6.74-9.27-3.3-18.7-3.78-28.22-.85-7.12,2.19-14.22,4.51-21.45,6.21-4.08.96-8.42.79-12.64,1.1-1.14.08-2.3.02-2.28,1.64.03,3.06-.15,6.13.14,9.17.42,4.45,2.51,6.18,5.76,6.25,0,0,5.19.57,13.21-1.34.44-.08.88-.17,1.31-.29.82-.24,1.65-.49,2.47-.74.04-.01.08-.02.12-.04.03,0,.05-.02.07-.02,4.81-1.49,9.55-3.21,14.42-4.45,4.14-1.06,8.53-2.12,12.7-1.81,5.42.41,10.87,1.77,16.05,3.49,5.82,1.94,11.43,4.47,17.13,6.75h0s10.41,6.37,29.9,2.72c3.76-.51,7.34-1.55,10.84-2.85,3.38-1.14,5.83-2.18,7.55-3.14,1.65-.73,3.28-1.48,4.93-2.21,10.56-4.68,21.11-5.23,31.85-1.58,9.15,3.11,18.33,5.87,28.03,6.63,3.96.31,5.99-.79,6.25-4.78.23-3.55-.38-7.17-.64-10.75Z"/>
        <path class="cls-1" d="M202.11,196.71c-.15-2-1.32-2.49-3.22-2.44-3.21.08-6.54.36-9.61-.34-6.86-1.55-13.79-3.15-20.35-5.62-12.22-4.6-23.9-2.97-35.55,1.68-3.79,1.51-7.54,3.11-11.34,4.62-13.65,5.41-27.26,5.32-40.84-.28-5.51-2.27-10.96-4.74-16.57-6.74-9.27-3.3-18.7-3.78-28.22-.85-7.12,2.19-14.22,4.51-21.45,6.21-4.08.96-8.42.79-12.64,1.1-1.14.08-2.3.02-2.28,1.64.03,3.06-.15,6.13.14,9.17.42,4.45,2.51,6.18,5.76,6.25,0,0,5.19.57,13.21-1.34.44-.08.88-.17,1.31-.29.82-.24,1.65-.49,2.47-.74.04-.01.08-.02.12-.04.03,0,.05-.02.07-.02,4.81-1.49,9.55-3.21,14.42-4.45,4.14-1.06,8.53-2.12,12.7-1.81,5.42.41,10.87,1.77,16.05,3.49,5.82,1.94,11.43,4.47,17.13,6.75h0s10.41,6.37,29.9,2.72c3.76-.51,7.34-1.55,10.84-2.85,3.38-1.14,5.83-2.18,7.55-3.14,1.65-.73,3.28-1.48,4.93-2.21,10.56-4.68,21.11-5.23,31.85-1.58,9.15,3.11,18.33,5.87,28.03,6.63,3.96.31,5.99-.79,6.25-4.78.23-3.55-.38-7.17-.64-10.75Z"/>
        <path class="cls-1" d="M202.11,170.79c-.15-2-1.32-2.49-3.22-2.44-3.21.08-6.54.36-9.61-.34-6.86-1.55-13.79-3.15-20.35-5.62-12.22-4.6-23.9-2.97-35.55,1.68-3.79,1.51-7.54,3.11-11.34,4.62-13.65,5.41-27.26,5.32-40.84-.28-5.51-2.27-10.96-4.74-16.57-6.74-9.27-3.3-18.7-3.78-28.22-.85-7.12,2.19-14.22,4.51-21.45,6.21-4.08.96-8.42.79-12.64,1.1-1.14.08-2.3.02-2.28,1.64.03,3.06-.15,6.13.14,9.17.42,4.45,2.51,6.18,5.76,6.25,0,0,5.19.57,13.21-1.34.44-.08.88-.17,1.31-.29.82-.24,1.65-.49,2.47-.74.04-.01.08-.02.12-.04.03,0,.05-.02.07-.02,4.81-1.49,9.55-3.21,14.42-4.45,4.14-1.06,8.53-2.12,12.7-1.81,5.42.41,10.87,1.77,16.05,3.49,5.82,1.94,11.43,4.47,17.13,6.75h0s10.41,6.37,29.9,2.72c3.76-.51,7.34-1.55,10.84-2.85,3.38-1.14,5.83-2.18,7.55-3.14,1.65-.73,3.28-1.48,4.93-2.21,10.56-4.68,21.11-5.23,31.85-1.58,9.15,3.11,18.33,5.87,28.03,6.63,3.96.31,5.99-.79,6.25-4.78.23-3.55-.38-7.17-.64-10.75Z"/>
      </g>
    </g>
    <text class="cls-3" transform="translate(232.89 179.58)"><tspan x="0" y="0">NoteFlow</tspan></text>
  </g>
</svg>