<?xml version="1.0" encoding="UTF-8"?>
<svg id="Layer_2" xmlns="http://www.w3.org/2000/svg" viewBox="0 0 1483.81 534.79">
  <defs>
    <style>
      .cls-1 {
        fill: #485eff;
      }

      .cls-2 {
        fill: #020202;
      }

      .cls-3 {
        fill: #fff;
      }
    </style>
  </defs>
  <g id="Layer_1-2" data-name="Layer_1">
    <path class="cls-2" d="M.79,273.02c0-58.28.1-116.55-.04-174.83-.08-35.64,15.64-63.16,45.3-83.42C60.64,4.81,77.21-.09,95.07,0c38.07.19,76.14.49,114.21.78,22.92.18,45.52-.69,68.38,1.28,19.13,1.66,31.58,11.23,45.26,23.87,21.02,19.42,42.03,38.85,63.05,58.27,8.77,8.11,17.93,14.79,22.95,25.52,19.43,41.53,11.81,91.41,11.97,135.7.23,64.13.36,128.26.6,192.39.05,13.69.13,27.47-5.32,40.28-13.76,32.3-39.27,50.75-74.64,55-17.69,2.13-35.79,1.34-53.71,1.4-59.91.2-119.83.17-179.74.29-21.12.04-41.65-2.3-60.62-12.3C14.24,504.98.3,476.81.13,441.39c-.26-56.12-.07-112.25-.07-168.37.24,0,.49,0,.73,0ZM211.31,339.87v-.05c-16.46,0-32.92,0-49.38,0-27.74,0-55.48-.1-83.23.02-6.76.03-12.65,5.02-12.56,9.88.09,5.01,6.66,10.42,12.82,10.43,77.87.13,155.73.29,233.6.29,12.17,0,24.35-.74,36.51-1.31,1.41-.07,3.46-.85,4.04-1.91,4.95-8.99-.35-17.34-10.87-17.34-43.65-.02-87.3,0-130.94,0ZM209.91,390.55c0-.1,0-.21,0-.31-44.01,0-88.01-.03-132.02.03-7.47,0-11.95,3.9-11.94,9.93.01,5.76,4.88,9.91,11.97,10.1,5.91.16,11.83.34,17.74.35,78.77.17,157.54.31,236.31.43,3.7,0,7.43.09,11.08-.35,7.41-.9,11.68-5.07,11.47-10.73-.21-5.57-5.05-9.2-12.61-9.42-2.22-.06-4.44-.02-6.66-.02-41.78,0-83.57,0-125.35,0ZM210.13,461.63c0,.19,0,.38,0,.57,43.45,0,86.9.02,130.35-.05,3.1,0,6.24-.54,9.29-1.17,1.26-.26,2.8-1.19,3.38-2.25,3.69-6.67-1.2-15.32-9.03-16.11-2.38-.24-4.8-.21-7.2-.21-72.11-.04-144.22-.09-216.33-.09-14.6,0-29.21.06-43.81.3-5.01.08-9.17,2.44-10.5,7.29-1.27,4.61,1.91,7.95,5.57,10.23,1.85,1.15,4.53,1.43,6.83,1.43,43.82.08,87.64.06,131.46.06ZM211.1,289.08c0-.11,0-.22,0-.33-42.89,0-85.78,0-128.67.02-2.39,0-4.84.1-7.17.59-5.26,1.11-9.53,6.31-9.15,10.77.37,4.32,5.04,8.03,10.7,8.43,1.47.11,2.96.07,4.44.07,84.31.21,168.63.42,252.94.59,3.13,0,6.29-.23,9.39-.66,6.12-.84,11.4-6.01,11.29-10.79-.11-4.49-5.76-8.49-12.31-8.69-1.11-.03-2.22,0-3.33,0-42.71,0-85.42,0-128.13,0ZM65.09,213.47c9.15-4.56,17.81-2.95,26.28,1.87,2,1.14,4.53,1.5,6.86,2,10.8,2.3,21.55,4.99,32.46,6.65,14.62,2.23,29.28,3.33,43.73-1.85,12.03-4.32,24.14-8.53,36.49-11.86,24.21-6.52,48.42-11.55,74.16-9.67,26.71,1.95,50.51,8.68,70.18,26.84.18.17.68.02,1.16.02,2.17-5.64.68-10.88-3.49-14.75-4.75-4.4-9.91-8.9-15.76-11.55-25.07-11.36-51.7-15.52-78.93-10.96-21.6,3.61-43.09,8.54-64.07,14.7-34.49,10.12-68.06,9.15-101.5-3.53-4.77-1.81-9.87-3.28-14.93-3.78-8.11-.81-14.57,7.34-12.66,15.86ZM64.69,158.66c8.06-5.95,16.07-3.82,23.29-.95,14.93,5.94,29.93,10.88,46.24,11.73,18.42.96,36.27-1.02,53.73-7.07,12.28-4.25,24.65-8.62,37.33-11.39,22.13-4.84,44.54-9.46,67.39-5.66,11.96,1.99,24.01,4.62,35.3,8.8,10.48,3.88,20.69,9.25,27.8,18.87.7-2.49,1.08-4.74.85-6.93-.64-6.34-5.23-10.11-10.11-13.44-19.6-13.35-42.3-16.46-65.31-17.49-29.44-1.33-57.52,5.72-85.16,14.75-27.6,9.01-55.64,11.52-83.98,3.88-9.19-2.48-17.82-6.85-26.86-9.91-10.65-3.59-19.46,2.44-20.51,14.81Z"/>
    <g>
      <path class="cls-3" d="M653.93,349.06h-43.11l-69.59-121.02h-.99c.29,5.03.55,10.1.77,15.21.22,5.11.44,10.2.66,15.26.22,5.07.44,10.16.66,15.26v75.28h-30.31v-159.98h42.78l69.48,119.82h.77c-.15-4.96-.33-9.88-.55-14.77-.22-4.89-.42-9.77-.6-14.66-.18-4.89-.35-9.77-.49-14.66v-75.72h30.53v159.98Z"/>
      <path class="cls-3" d="M791.54,287.68c0,10.21-1.37,19.26-4.1,27.14-2.74,7.88-6.71,14.54-11.93,19.97-5.22,5.43-11.49,9.54-18.82,12.31-7.33,2.77-15.59,4.16-24.78,4.16-8.61,0-16.51-1.39-23.69-4.16-7.19-2.77-13.42-6.88-18.71-12.31-5.29-5.43-9.38-12.09-12.26-19.97-2.88-7.88-4.32-16.92-4.32-27.14,0-13.57,2.41-25.06,7.22-34.47,4.81-9.41,11.67-16.56,20.57-21.45,8.9-4.89,19.51-7.33,31.84-7.33,11.45,0,21.61,2.44,30.47,7.33,8.86,4.89,15.83,12.04,20.9,21.45,5.07,9.41,7.6,20.9,7.6,34.47ZM706.96,287.68c0,8.03.88,14.77,2.63,20.24,1.75,5.47,4.49,9.59,8.21,12.36,3.72,2.77,8.57,4.16,14.55,4.16s10.7-1.38,14.39-4.16c3.68-2.77,6.38-6.89,8.1-12.36,1.71-5.47,2.57-12.22,2.57-20.24s-.86-14.83-2.57-20.19c-1.71-5.36-4.43-9.39-8.15-12.09-3.72-2.7-8.57-4.05-14.55-4.05-8.83,0-15.23,3.03-19.2,9.08-3.98,6.06-5.96,15.14-5.96,27.25Z"/>
      <path class="cls-3" d="M859.45,324.66c3.65,0,7.2-.36,10.67-1.09,3.46-.73,6.91-1.64,10.34-2.74v24.84c-3.58,1.61-8.01,2.94-13.29,3.99-5.29,1.06-11.07,1.59-17.34,1.59-7.29,0-13.84-1.19-19.64-3.56-5.8-2.37-10.36-6.49-13.68-12.36-3.32-5.87-4.98-14.06-4.98-24.57v-58.98h-15.98v-14.12l18.38-11.16,9.63-25.82h21.34v26.04h34.25v25.06h-34.25v58.98c0,4.67,1.33,8.15,3.99,10.45,2.66,2.3,6.18,3.45,10.56,3.45Z"/>
      <path class="cls-3" d="M944.42,224.43c11.31,0,21.04,2.17,29.22,6.51,8.17,4.34,14.48,10.63,18.93,18.88,4.45,8.24,6.67,18.31,6.67,30.2v16.2h-78.89c.36,9.41,3.19,16.8,8.48,22.16,5.29,5.36,12.64,8.04,22.05,8.04,7.8,0,14.95-.8,21.45-2.41,6.49-1.6,13.17-4.01,20.02-7.22v25.82c-6.06,2.99-12.38,5.18-18.98,6.57-6.6,1.38-14.61,2.08-24.02,2.08-12.25,0-23.11-2.26-32.55-6.78-9.45-4.52-16.85-11.42-22.21-20.68-5.36-9.26-8.04-20.94-8.04-35.02s2.42-26.21,7.28-35.73c4.85-9.52,11.62-16.67,20.3-21.45,8.68-4.78,18.78-7.17,30.31-7.17ZM944.64,248.18c-6.49,0-11.87,2.08-16.14,6.24s-6.73,10.69-7.39,19.59h46.83c-.07-4.96-.97-9.37-2.68-13.24-1.71-3.87-4.27-6.93-7.66-9.19-3.39-2.26-7.71-3.39-12.97-3.39Z"/>
      <path class="cls-3" d="M1051.18,349.06h-33.37v-159.98h91.7v27.79h-58.32v41.25h54.27v27.68h-54.27v63.25Z"/>
      <path class="cls-3" d="M1160.34,349.06h-33.37v-170.26h33.37v170.26Z"/>
      <path class="cls-3" d="M1295.32,287.68c0,10.21-1.37,19.26-4.1,27.14-2.74,7.88-6.71,14.54-11.93,19.97-5.22,5.43-11.49,9.54-18.82,12.31-7.33,2.77-15.59,4.16-24.78,4.16-8.61,0-16.51-1.39-23.69-4.16-7.19-2.77-13.42-6.88-18.71-12.31-5.29-5.43-9.38-12.09-12.26-19.97-2.88-7.88-4.32-16.92-4.32-27.14,0-13.57,2.41-25.06,7.22-34.47,4.81-9.41,11.67-16.56,20.57-21.45,8.9-4.89,19.51-7.33,31.84-7.33,11.45,0,21.61,2.44,30.47,7.33,8.86,4.89,15.83,12.04,20.9,21.45,5.07,9.41,7.6,20.9,7.6,34.47ZM1210.74,287.68c0,8.03.88,14.77,2.63,20.24,1.75,5.47,4.49,9.59,8.21,12.36,3.72,2.77,8.57,4.16,14.55,4.16s10.7-1.38,14.39-4.16c3.68-2.77,6.38-6.89,8.1-12.36,1.71-5.47,2.57-12.22,2.57-20.24s-.86-14.83-2.57-20.19c-1.71-5.36-4.43-9.39-8.15-12.09-3.72-2.7-8.57-4.05-14.55-4.05-8.83,0-15.23,3.03-19.2,9.08-3.98,6.06-5.96,15.14-5.96,27.25Z"/>
      <path class="cls-3" d="M1412.25,349.06l-9.41-42.78c-.51-2.55-1.35-6.33-2.52-11.33-1.17-5-2.43-10.36-3.78-16.08-1.35-5.73-2.59-11.03-3.72-15.92-1.13-4.89-1.95-8.46-2.46-10.72h-.99c-.51,2.26-1.31,5.84-2.41,10.72-1.09,4.89-2.32,10.21-3.67,15.98-1.35,5.76-2.61,11.18-3.77,16.25-1.17,5.07-2.04,8.92-2.63,11.54l-9.85,42.35h-35.89l-34.8-122.33h33.26l14.12,54.16c.95,3.79,1.86,8.3,2.74,13.51.88,5.22,1.66,10.25,2.35,15.1.69,4.85,1.22,8.7,1.59,11.54h.88c.15-2.12.46-4.92.93-8.43.47-3.5,1.02-7.13,1.64-10.89.62-3.76,1.2-7.15,1.75-10.18.55-3.03.97-5.09,1.26-6.18l15.1-58.65h36.77l14.33,58.65c.51,2.12,1.18,5.47,2.02,10.07.84,4.6,1.59,9.32,2.24,14.17.66,4.85,1.02,8.66,1.09,11.43h.88c.29-2.48.8-6.16,1.53-11.05.73-4.89,1.59-10.01,2.57-15.37.98-5.36,1.99-9.94,3.01-13.73l14.66-54.16h32.72l-35.23,122.33h-36.33Z"/>
    </g>
    <path class="cls-3" d="M21.05,272.62c0-54.16.09-108.32-.03-162.47-.07-33.12,14.09-58.7,40.82-77.52,13.14-9.25,28.07-13.81,44.17-13.73,48.49.25,96.98.69,145.47,1.06.67,0,1.36.19,1.99.05,5.12-1.15,6.25,1.58,6.28,5.98.1,15.16.56,30.31.49,45.47-.06,13.37,1.78,25.91,11.75,35.97,9.29,9.38,20.24,15.08,33.59,15.48,20.15.62,40.32.88,60.46,1.78,8.43.37,16.81,1.97,25.21,3.01,3.18.39,5.24,2.04,5.5,5.34.91,11.26,2.46,22.53,2.52,33.8.45,86.31.57,172.63.88,258.94.05,12.72.12,25.53-4.8,37.43-12.4,30.02-35.39,47.16-67.26,51.12-15.94,1.98-32.26,1.24-48.4,1.3-53.99.19-107.98.16-161.98.27-19.03.04-37.54-2.14-54.63-11.43-29.93-16.27-42.49-42.45-42.64-75.36-.23-52.16-.06-104.31-.06-156.47.22,0,.44,0,.66,0ZM210.75,334.74v-.05c-14.83,0-29.67,0-44.5,0-25,0-50-.1-75,.02-6.09.03-11.4,4.67-11.32,9.18.08,4.65,6,9.68,11.56,9.69,70.17.12,140.34.27,210.51.27,10.97,0,21.94-.69,32.9-1.22,1.27-.06,3.12-.79,3.64-1.77,4.46-8.36-.31-16.11-9.79-16.12-39.33-.02-78.67,0-118,0ZM209.49,381.85c0-.1,0-.19,0-.29-39.66,0-79.31-.02-118.97.02-6.73,0-10.77,3.62-10.76,9.22,0,5.36,4.4,9.21,10.79,9.39,5.33.15,10.66.32,15.99.33,70.99.15,141.97.29,212.96.4,3.33,0,6.69.08,9.98-.33,6.68-.83,10.53-4.71,10.34-9.97-.19-5.17-4.55-8.55-11.37-8.76-2-.06-4-.02-6-.02-37.65,0-75.31,0-112.96,0ZM209.69,447.9c0,.18,0,.35,0,.53,39.16,0,78.31.02,117.47-.05,2.8,0,5.63-.5,8.37-1.09,1.13-.24,2.52-1.11,3.05-2.09,3.33-6.2-1.08-14.24-8.14-14.97-2.15-.22-4.33-.2-6.49-.2-64.98-.04-129.96-.08-194.95-.08-13.16,0-26.32.05-39.48.28-4.52.08-8.27,2.27-9.47,6.77-1.14,4.29,1.72,7.39,5.02,9.51,1.66,1.07,4.08,1.33,6.16,1.33,39.49.07,78.98.05,118.47.05ZM210.56,287.55c0-.1,0-.2,0-.31-38.65,0-77.3,0-115.96.02-2.16,0-4.36.1-6.46.55-4.74,1.03-8.59,5.87-8.25,10.01.34,4.02,4.54,7.46,9.64,7.84,1.33.1,2.66.06,4,.07,75.98.19,151.96.39,227.94.54,2.82,0,5.67-.22,8.47-.61,5.52-.78,10.27-5.58,10.17-10.02-.1-4.18-5.19-7.89-11.09-8.08-1-.03-2,0-3,0-38.49,0-76.97,0-115.46,0ZM78.98,217.28c8.25-4.23,16.05-2.74,23.68,1.74,1.81,1.06,4.08,1.4,6.18,1.86,9.74,2.14,19.42,4.63,29.25,6.18,13.18,2.08,26.39,3.1,39.41-1.72,10.84-4.01,21.76-7.93,32.88-11.02,21.82-6.06,43.64-10.73,66.83-8.98,24.07,1.82,45.52,8.07,63.25,24.94.17.16.61.02,1.05.02,1.96-5.24.61-10.12-3.14-13.7-4.28-4.09-8.93-8.27-14.2-10.74-22.59-10.55-46.59-14.42-71.13-10.19-19.46,3.36-38.83,7.94-57.74,13.66-31.08,9.4-61.33,8.5-91.46-3.28-4.3-1.68-8.89-3.04-13.46-3.51-7.31-.75-13.13,6.82-11.41,14.74ZM78.62,166.34c7.26-5.53,14.48-3.55,20.98-.88,13.46,5.52,26.97,10.11,41.67,10.9,16.6.89,32.69-.95,48.42-6.57,11.07-3.95,22.21-8.01,33.64-10.58,19.94-4.49,40.14-8.79,60.73-5.26,10.77,1.85,21.64,4.29,31.81,8.18,9.45,3.6,18.65,8.59,25.06,17.54.63-2.31.97-4.4.77-6.44-.58-5.89-4.71-9.39-9.11-12.49-17.66-12.41-38.12-15.29-58.85-16.26-26.53-1.23-51.84,5.32-76.75,13.7-24.88,8.38-50.14,10.71-75.68,3.61-8.28-2.3-16.06-6.37-24.21-9.21-9.6-3.34-17.54,2.27-18.48,13.76Z"/>
    <path class="cls-3" d="M275.96,19.35c11.65-.01,20.25,5.66,27.64,12.56,22.53,21,44.54,42.54,66.81,63.81,3.83,3.66,7.92,7.04,11.89,10.55-.34.63-.68,1.26-1.02,1.89-1.49.11-2.98.34-4.46.32-23.65-.35-47.3-.83-70.95-1.08-12.51-.13-26.28-11.36-28.82-24.43-1.08-5.53-1.48-11.24-1.64-16.88-.35-12.66-.41-25.33-.44-37.99,0-2.79.61-5.57.98-8.74Z"/>
    <path d="M210.75,334.74c39.33,0,78.67,0,118,0,9.48,0,14.25,7.76,9.79,16.12-.52.98-2.37,1.71-3.64,1.77-10.96.53-21.93,1.21-32.9,1.22-70.17,0-140.34-.15-210.51-.27-5.55,0-11.47-5.04-11.56-9.69-.08-4.52,5.23-9.16,11.32-9.18,25-.12,50-.03,75-.02,14.83,0,29.66,0,44.5,0v.05Z"/>
    <path d="M209.49,381.85c37.65,0,75.31,0,112.96,0,2,0,4-.04,6,.02,6.82.21,11.18,3.58,11.37,8.76.19,5.26-3.66,9.14-10.34,9.97-3.29.41-6.65.33-9.98.33-70.99-.12-141.97-.25-212.96-.4-5.33-.01-10.66-.18-15.99-.33-6.39-.18-10.78-4.03-10.79-9.39-.01-5.6,4.03-9.22,10.76-9.22,39.66-.05,79.31-.02,118.97-.02,0,.1,0,.19,0,.29Z"/>
    <path d="M209.69,447.9c-39.49,0-78.98.02-118.47-.05-2.08,0-4.49-.27-6.16-1.33-3.3-2.12-6.16-5.22-5.02-9.51,1.2-4.5,4.95-6.7,9.47-6.77,13.16-.22,26.32-.28,39.48-.28,64.98,0,129.96.05,194.95.08,2.16,0,4.34-.02,6.49.2,7.06.73,11.47,8.77,8.14,14.97-.53.98-1.91,1.84-3.05,2.09-2.74.59-5.57,1.08-8.37,1.09-39.16.07-78.31.05-117.47.05,0-.18,0-.35,0-.53Z"/>
    <path d="M210.56,287.55c38.49,0,76.97,0,115.46,0,1,0,2-.03,3,0,5.91.19,11,3.9,11.09,8.08.1,4.44-4.65,9.24-10.17,10.02-2.8.4-5.64.62-8.47.61-75.98-.16-151.96-.35-227.94-.54-1.33,0-2.67.03-4-.07-5.1-.38-9.31-3.82-9.64-7.84-.35-4.14,3.51-8.97,8.25-10.01,2.1-.46,4.3-.55,6.46-.55,38.65-.03,77.3-.02,115.96-.02,0,.1,0,.2,0,.31Z"/>
    <path d="M78.98,217.28c-1.72-7.92,4.1-15.49,11.41-14.74,4.56.47,9.16,1.83,13.46,3.51,30.13,11.78,60.38,12.69,91.46,3.28,18.9-5.72,38.28-10.3,57.74-13.66,24.53-4.23,48.53-.36,71.13,10.19,5.27,2.46,9.93,6.65,14.2,10.74,3.76,3.59,5.1,8.46,3.14,13.7-.43,0-.88.14-1.05-.02-17.72-16.87-39.18-23.13-63.25-24.94-23.2-1.75-45.02,2.93-66.83,8.98-11.13,3.09-22.04,7.01-32.88,11.02-13.02,4.82-26.23,3.8-39.41,1.72-9.83-1.55-19.52-4.05-29.25-6.18-2.1-.46-4.38-.8-6.18-1.86-7.63-4.48-15.44-5.98-23.68-1.74Z"/>
    <path d="M96.17,75.61c7.67-.02,14.62,5.98,14.82,12.48.29,9.3-8.26,16.2-14.11,16.3-8.61.15-16.51-6.56-16.44-13.83.08-8.34,7.01-14.93,15.72-14.95Z"/>
    <path class="cls-1" d="M341.55,176.8c.19-1.23.27-2.41.15-3.58-.58-5.89-4.71-9.39-9.11-12.49-17.66-12.41-38.12-15.29-58.85-16.26-26.53-1.23-51.84,5.32-76.75,13.7-24.88,8.38-50.14,10.71-75.68,3.61-8.28-2.3-16.06-6.37-24.21-9.21-9.6-3.34-17.54,2.27-18.48,13.76.07-.05.14-.1.21-.15-.19,1.23-.27,2.41-.15,3.58.58,5.89,4.71,9.39,9.11,12.49,17.66,12.41,38.12,15.29,58.85,16.26,26.53,1.23,51.84-5.32,76.75-13.7,24.88-8.38,50.14-10.71,75.68-3.61,8.28,2.3,16.06,6.37,24.21,9.21,9.6,3.34,17.54-2.27,18.48-13.76-.07.05-.14.09-.21.15Z"/>
    <path class="cls-1" d="M341.55,226.8c.19-1.23.27-2.41.15-3.58-.58-5.89-4.71-9.39-9.11-12.49-17.66-12.41-38.12-15.29-58.85-16.26-26.53-1.23-51.84,5.32-76.75,13.7-24.88,8.38-50.14,10.71-75.68,3.61-8.28-2.3-16.06-6.37-24.21-9.21-9.6-3.34-17.54,2.27-18.48,13.76.07-.05.14-.1.21-.15-.19,1.23-.27,2.41-.15,3.58.58,5.89,4.71,9.39,9.11,12.49,17.66,12.41,38.12,15.29,58.85,16.26,26.53,1.23,51.84-5.32,76.75-13.7,24.88-8.38,50.14-10.71,75.68-3.61,8.28,2.3,16.06,6.37,24.21,9.21,9.6,3.34,17.54-2.27,18.48-13.76-.07.05-.14.09-.21.15Z"/>
  </g>
</svg>